<svg width="680" height="515" viewBox="0 0 680 515" fill="none" xmlns="http://www.w3.org/2000/svg">
<rect x="209" y="17" width="368" height="322" rx="8" fill="#F2F2F2"/>
<g clip-path="url(#clip0)">
<rect x="492" y="146" width="70" height="194" rx="8" fill="white"/>
<rect x="510" y="164" width="34" height="26" rx="4" fill="#DDE3E9"/>
<rect x="510" y="198" width="34" height="25" rx="4" fill="#AFB9C5"/>
<rect x="510" y="231" width="34" height="25" rx="4" fill="#DDE3E9"/>
<rect x="510" y="297" width="34" height="25" rx="4" fill="#DDE3E9"/>
<rect x="510" y="264" width="34" height="25" rx="4" fill="#C5CFD6"/>
<rect x="492" y="57" width="70" height="81" rx="8" fill="white"/>
<path fill-rule="evenodd" clip-rule="evenodd" d="M527 104C535.837 104 543 96.8366 543 88C543 79.1634 535.837 72 527 72C518.163 72 511 79.1634 511 88C511 96.8366 518.163 104 527 104Z" fill="#F9E8C5"/>
<rect x="502" y="108" width="50" height="6" rx="3" fill="#DDE3E9"/>
<rect x="510" y="118" width="34" height="6" rx="3" fill="#DDE3E9"/>
<rect x="224" y="57" width="260" height="47" rx="4" fill="white"/>
<g clip-path="url(#clip1)">
<rect x="233" y="71.1" width="202" height="7.05" rx="3" fill="#DDE3E9"/>
<rect x="233" y="82.85" width="135.589" height="7.05" rx="3" fill="#DDE3E9"/>
</g>
<path fill-rule="evenodd" clip-rule="evenodd" d="M466.435 87.5C470.301 87.5 473.435 84.366 473.435 80.5C473.435 76.634 470.301 73.5 466.435 73.5C462.569 73.5 459.435 76.634 459.435 80.5C459.435 84.366 462.569 87.5 466.435 87.5Z" fill="#DDE3E9"/>
<path fill-rule="evenodd" clip-rule="evenodd" d="M466.435 83.5C468.092 83.5 469.435 82.1569 469.435 80.5C469.435 78.8431 468.092 77.5 466.435 77.5C464.778 77.5 463.435 78.8431 463.435 80.5C463.435 82.1569 464.778 83.5 466.435 83.5Z" fill="#F2F2F2"/>
<rect x="224" y="112" width="260" height="39" rx="4" fill="white"/>
<g clip-path="url(#clip2)">
<rect x="233" y="123.7" width="202" height="5.85" rx="2.925" fill="#DDE3E9"/>
<rect x="233" y="133.45" width="135.589" height="5.85" rx="2.925" fill="#DDE3E9"/>
</g>
<path fill-rule="evenodd" clip-rule="evenodd" d="M466.435 138.5C470.301 138.5 473.435 135.366 473.435 131.5C473.435 127.634 470.301 124.5 466.435 124.5C462.569 124.5 459.435 127.634 459.435 131.5C459.435 135.366 462.569 138.5 466.435 138.5Z" fill="#DDE3E9"/>
<path fill-rule="evenodd" clip-rule="evenodd" d="M466.435 134.5C468.092 134.5 469.435 133.157 469.435 131.5C469.435 129.843 468.092 128.5 466.435 128.5C464.778 128.5 463.435 129.843 463.435 131.5C463.435 133.157 464.778 134.5 466.435 134.5Z" fill="#F2F2F2"/>
<rect x="224" y="159" width="260" height="39" rx="4" fill="white"/>
<g clip-path="url(#clip3)">
<rect x="233" y="170.7" width="202" height="5.85" rx="2.925" fill="#DDE3E9"/>
<rect x="233" y="180.45" width="135.589" height="5.85" rx="2.925" fill="#DDE3E9"/>
</g>
<path fill-rule="evenodd" clip-rule="evenodd" d="M466.435 185.5C470.301 185.5 473.435 182.366 473.435 178.5C473.435 174.634 470.301 171.5 466.435 171.5C462.569 171.5 459.435 174.634 459.435 178.5C459.435 182.366 462.569 185.5 466.435 185.5Z" fill="#FF906F"/>
<path fill-rule="evenodd" clip-rule="evenodd" d="M466.435 181.5C468.092 181.5 469.435 180.157 469.435 178.5C469.435 176.843 468.092 175.5 466.435 175.5C464.778 175.5 463.435 176.843 463.435 178.5C463.435 180.157 464.778 181.5 466.435 181.5Z" fill="#FF4133"/>
<rect x="224" y="300" width="260" height="39" rx="4" fill="white"/>
<g clip-path="url(#clip4)">
<rect x="233" y="311.7" width="202" height="5.85" rx="2.925" fill="#DDE3E9"/>
</g>
<path fill-rule="evenodd" clip-rule="evenodd" d="M466.435 326.5C470.301 326.5 473.435 323.366 473.435 319.5C473.435 315.634 470.301 312.5 466.435 312.5C462.569 312.5 459.435 315.634 459.435 319.5C459.435 323.366 462.569 326.5 466.435 326.5Z" fill="#DDE3E9"/>
<path fill-rule="evenodd" clip-rule="evenodd" d="M466.435 322.5C468.092 322.5 469.435 321.157 469.435 319.5C469.435 317.843 468.092 316.5 466.435 316.5C464.778 316.5 463.435 317.843 463.435 319.5C463.435 321.157 464.778 322.5 466.435 322.5Z" fill="#F2F2F2"/>
<rect x="224" y="253" width="260" height="39" rx="4" fill="white"/>
<g clip-path="url(#clip5)">
<rect x="233" y="264.7" width="202" height="5.85" rx="2.925" fill="#DDE3E9"/>
<rect x="233" y="274.45" width="135.589" height="5.85" rx="2.925" fill="#DDE3E9"/>
</g>
<path fill-rule="evenodd" clip-rule="evenodd" d="M466.435 279.5C470.301 279.5 473.435 276.366 473.435 272.5C473.435 268.634 470.301 265.5 466.435 265.5C462.569 265.5 459.435 268.634 459.435 272.5C459.435 276.366 462.569 279.5 466.435 279.5Z" fill="#DDE3E9"/>
<path fill-rule="evenodd" clip-rule="evenodd" d="M466.435 275.5C468.092 275.5 469.435 274.157 469.435 272.5C469.435 270.843 468.092 269.5 466.435 269.5C464.778 269.5 463.435 270.843 463.435 272.5C463.435 274.157 464.778 275.5 466.435 275.5Z" fill="#F2F2F2"/>
<rect x="224" y="206" width="260" height="39" rx="4" fill="white"/>
<g clip-path="url(#clip6)">
<rect x="233" y="217.7" width="202" height="5.85" rx="2.925" fill="#DDE3E9"/>
<rect x="233" y="227.45" width="135.589" height="5.85" rx="2.925" fill="#DDE3E9"/>
</g>
<path fill-rule="evenodd" clip-rule="evenodd" d="M466.435 232.5C470.301 232.5 473.435 229.366 473.435 225.5C473.435 221.634 470.301 218.5 466.435 218.5C462.569 218.5 459.435 221.634 459.435 225.5C459.435 229.366 462.569 232.5 466.435 232.5Z" fill="#DDE3E9"/>
<path fill-rule="evenodd" clip-rule="evenodd" d="M466.435 228.5C468.092 228.5 469.435 227.157 469.435 225.5C469.435 223.843 468.092 222.5 466.435 222.5C464.778 222.5 463.435 223.843 463.435 225.5C463.435 227.157 464.778 228.5 466.435 228.5Z" fill="#F2F2F2"/>
</g>
<path d="M209 8C209 3.58172 212.582 0 217 0H569C573.418 0 577 3.58172 577 8V25H209V8Z" fill="#C5CFD6"/>
<path fill-rule="evenodd" clip-rule="evenodd" d="M221.081 16.6364C223.134 16.6364 224.798 14.9721 224.798 12.9192C224.798 10.8663 223.134 9.20203 221.081 9.20203C219.028 9.20203 217.364 10.8663 217.364 12.9192C217.364 14.9721 219.028 16.6364 221.081 16.6364Z" fill="#F2F2F2"/>
<path fill-rule="evenodd" clip-rule="evenodd" d="M232.232 16.6364C234.285 16.6364 235.95 14.9721 235.95 12.9192C235.95 10.8663 234.285 9.20203 232.232 9.20203C230.179 9.20203 228.515 10.8663 228.515 12.9192C228.515 14.9721 230.179 16.6364 232.232 16.6364Z" fill="#F2F2F2"/>
<path fill-rule="evenodd" clip-rule="evenodd" d="M243.384 16.6364C245.437 16.6364 247.101 14.9721 247.101 12.9192C247.101 10.8663 245.437 9.20203 243.384 9.20203C241.331 9.20203 239.667 10.8663 239.667 12.9192C239.667 14.9721 241.331 16.6364 243.384 16.6364Z" fill="#F2F2F2"/>
<path fill-rule="evenodd" clip-rule="evenodd" d="M114.527 135.597C120.28 138.039 125.708 138.847 128.067 137.874C133.98 135.435 131.399 112.98 125.413 104.826C119.426 96.6721 94.4829 96.2568 95.7092 113.907C96.1348 120.033 99.4503 125.088 103.846 128.975L101.498 161.376L121.158 158.613L114.527 135.597Z" fill="#B28B67"/>
<path fill-rule="evenodd" clip-rule="evenodd" d="M103.181 134.484C94.8525 124.809 83.8206 121.067 82.2773 115.581C80.7341 110.095 84.7513 106.417 84.7513 106.417C84.7513 106.417 81.9682 95.3932 95.8663 89.8541C109.764 84.3151 120.678 85.4964 123.61 99.3318C120.431 101.026 115.979 101.922 111.722 106.721C109.695 109.005 111.207 114.462 111.207 114.462L108.809 115.74C108.809 115.74 102.232 111.812 99.6554 115.155C97.079 118.499 102.085 123.432 102.085 123.432L105.733 133.124L103.181 134.484Z" fill="#191847"/>
<path fill-rule="evenodd" clip-rule="evenodd" d="M108.537 226.329L170.004 328.782L216.086 415.397H226.012L148.8 226.329L108.537 226.329Z" fill="#997659"/>
<path fill-rule="evenodd" clip-rule="evenodd" d="M212.652 410.624C211.577 410.166 210.304 410.64 209.913 411.742C209.33 413.381 208.629 415.624 208.629 416.927C208.629 419.158 209.375 423.438 209.375 423.438C211.97 423.438 256.031 423.438 256.031 423.438C256.031 423.438 257.849 417.443 253.931 416.965C250.013 416.487 247.421 416.102 247.421 416.102L225.897 406.535C225.382 406.307 224.781 406.547 224.566 407.067L223.24 410.274C223.24 410.274 219.613 411.961 217.345 411.961C216.067 411.961 214.114 411.248 212.652 410.624Z" fill="white"/>
<path fill-rule="evenodd" clip-rule="evenodd" d="M203.288 401.527L222.43 395.754C222.43 395.754 209.85 358.261 191.593 313.234C173.336 268.207 152.379 226.329 152.379 226.329H98.3161C98.3161 226.329 121.616 279.302 147.718 322.595C173.821 365.888 203.288 401.527 203.288 401.527Z" fill="#FF5D2D"/>
<path fill-rule="evenodd" clip-rule="evenodd" d="M104.497 226.329C98.6961 262.332 87.5069 308.329 86.451 309.749C85.747 310.695 60.404 319.162 10.4218 335.149L12.5659 343.875C72.1695 335.301 103.576 328.649 106.784 323.919C111.597 316.824 135.627 260.772 144.934 226.329H104.497Z" fill="#B28B67"/>
<path fill-rule="evenodd" clip-rule="evenodd" d="M27.9914 327.605L31.7679 341.66C76.348 345.558 103.663 342.741 113.713 333.21C123.764 323.678 135.218 288.051 148.077 226.329H96.5244C88.3776 276.871 83.823 303.203 82.8606 305.325C81.8982 307.447 63.6085 314.874 27.9914 327.605Z" fill="#FF906F"/>
<path fill-rule="evenodd" clip-rule="evenodd" d="M14.0882 333.98C14.3552 332.838 13.6641 331.663 12.5071 331.469C10.7869 331.182 8.45344 330.884 7.16735 331.11C4.9638 331.498 0.865767 332.973 0.865767 332.973C1.31651 335.522 8.9675 378.782 8.9675 378.782C8.9675 378.782 15.2043 379.527 14.996 375.597C14.7877 371.666 14.7181 369.055 14.7181 369.055L20.4288 346.266C20.5659 345.719 20.2233 345.166 19.672 345.046L16.2762 344.301C16.2762 344.301 13.9797 341.033 13.5859 338.806C13.3646 337.555 13.7276 335.521 14.0882 333.98Z" fill="white"/>
<path fill-rule="evenodd" clip-rule="evenodd" d="M166.69 153.622L140.439 173.143L152.518 182.903L170.527 161.14C180.991 156.62 185.66 153.733 184.537 152.479C183.589 151.421 182.331 151.64 181.172 151.84C180.27 151.997 179.428 152.143 178.839 151.667C177.495 150.581 179.11 145.897 180.833 141.517C182.556 137.136 180.153 137.834 178.833 138.615C174.679 142.357 170.632 147.359 166.69 153.622ZM198.339 171.389L186.811 179.984L189.279 192.38C189.279 192.38 196.55 185.423 203.237 182.51C211.763 178.796 215.089 176.408 218.651 170.29C220.556 167.017 221.693 160.816 219.213 159.197C218.262 158.576 215.352 160.768 212.382 163.005C210.119 164.709 207.821 166.44 206.331 166.971C204.324 167.685 204.19 164.981 204.084 162.82C204.007 161.269 203.945 159.998 203.213 160.471C199.566 161.047 198.339 171.389 198.339 171.389Z" fill="#997659"/>
<path fill-rule="evenodd" clip-rule="evenodd" d="M126.106 171.631C136.05 170.126 149.036 166.163 161.946 155.204L169.25 166.794C160.835 177.839 148.208 187.716 136.144 189.069C126.636 190.135 120.191 179.394 126.106 171.631Z" fill="#C59DF2"/>
<path fill-rule="evenodd" clip-rule="evenodd" d="M111.16 260.173C101.519 260.273 92.6604 260.365 87.6472 262.101C79.2305 244.185 82.3764 231.717 85.2805 220.208C87.0309 213.272 88.6933 206.683 87.6837 199.46C84.7434 178.424 97.1332 143.668 99.6255 143.317L100.341 143.217L120.093 140.441L122.354 140.123C125.2 152.996 131.518 166.479 137.876 180.049C139.361 183.218 140.848 186.392 142.293 189.563C159.337 190.98 194.187 172.813 194.187 172.813C194.187 172.813 206.13 190.61 206.575 198.841C186.788 212.96 169.187 220.489 154.157 222.935C155.89 231.786 155.994 240.425 153.426 248.692C149.985 259.77 129.203 259.986 111.16 260.173Z" fill="#E0C8FB"/>
<path fill-rule="evenodd" clip-rule="evenodd" d="M217.714 141.545C217.714 141.55 217.713 141.555 217.712 141.561C217.713 141.556 217.712 141.537 217.714 141.545Z" fill="#C5CFD6"/>
<path fill-rule="evenodd" clip-rule="evenodd" d="M217.712 141.553C217.712 141.554 217.712 141.556 217.712 141.557C217.711 141.553 217.716 141.537 217.712 141.553Z" fill="#C5CFD6"/>
<path fill-rule="evenodd" clip-rule="evenodd" d="M217.724 141.469C217.722 141.488 217.719 141.507 217.716 141.527C217.717 141.517 217.719 141.509 217.72 141.499C217.685 141.757 217.707 141.59 217.724 141.469Z" fill="#C5CFD6"/>
<path fill-rule="evenodd" clip-rule="evenodd" d="M217.718 141.528C217.716 141.537 217.715 141.547 217.713 141.556C217.7 141.613 217.718 141.528 217.718 141.528Z" fill="#C5CFD6"/>
<path fill-rule="evenodd" clip-rule="evenodd" d="M217.713 141.553C217.712 141.552 217.712 141.552 217.713 141.551C217.712 141.552 217.712 141.552 217.713 141.553Z" fill="#C5CFD6"/>
<path fill-rule="evenodd" clip-rule="evenodd" d="M217.71 141.56C217.707 141.572 217.725 141.512 217.71 141.56V141.56Z" fill="#C5CFD6"/>
<path fill-rule="evenodd" clip-rule="evenodd" d="M217.712 141.553L217.713 141.551C217.713 141.552 217.713 141.553 217.712 141.553Z" fill="#C5CFD6"/>
<rect x="160.299" y="104.336" width="92.9447" height="61.3435" rx="4" transform="rotate(-14 160.299 104.336)" fill="#61EDE9"/>
<path fill-rule="evenodd" clip-rule="evenodd" d="M198.718 113.22L183.277 162.091L235.295 149.121L198.718 113.22Z" fill="black" fill-opacity="0.2"/>
<path fill-rule="evenodd" clip-rule="evenodd" d="M228.366 117.887L213.109 154.653L259.097 143.187L228.366 117.887Z" fill="black" fill-opacity="0.2"/>
<path fill-rule="evenodd" clip-rule="evenodd" d="M238.31 115.849C243.041 114.669 245.921 109.877 244.741 105.146C243.561 100.414 238.769 97.5344 234.037 98.7142C229.306 99.8939 226.426 104.686 227.606 109.418C228.786 114.149 233.578 117.029 238.31 115.849Z" fill="white"/>
<path fill-rule="evenodd" clip-rule="evenodd" d="M282.744 229.108C287.985 232.27 293.136 233.797 295.553 233.174C301.615 231.61 302.173 209.417 297.482 200.669C292.791 191.92 268.678 188.106 267.463 205.441C267.041 211.457 269.565 216.826 273.295 221.207L266.608 252.4H286.034L282.744 229.108Z" fill="#FBD0DC"/>
<path fill-rule="evenodd" clip-rule="evenodd" d="M289.809 191.14C287.154 190.33 283.301 190.055 281.68 190.241C282.602 188.03 282.968 185.567 282.67 183.169C282.38 180.838 281.339 178.854 280.377 176.775C279.933 175.816 279.43 174.863 278.681 174.13C277.917 173.383 276.951 172.89 275.937 172.655C274.9 172.414 273.816 172.434 272.777 172.653C272.317 172.749 271.905 172.96 271.454 173.076C270.993 173.196 270.769 172.907 270.434 172.617C269.627 171.917 268.443 171.571 267.422 171.448C266.276 171.309 265.087 171.482 263.994 171.859C262.93 172.226 261.909 172.822 261.14 173.69C260.797 174.076 260.486 174.516 260.284 175.002C260.201 175.201 260.188 175.319 259.989 175.392C259.805 175.459 259.59 175.461 259.401 175.526C257.567 176.147 255.998 177.565 255.145 179.386C254.646 180.448 254.411 182.319 254.475 184.415C254.54 186.511 256.431 191.981 258.2 193.976C259.779 195.756 262.1 196.931 264.34 197.446C262.854 199.146 261.864 201.272 261.132 203.433C260.337 205.781 259.845 208.22 259.663 210.705C259.491 213.067 259.475 215.564 260.028 217.875C260.546 220.036 261.652 221.809 263.5 222.934C264.346 223.449 265.257 223.836 266.173 224.19C267.075 224.539 267.981 224.878 268.926 225.073C270.715 225.443 272.777 225.38 274.155 223.955C274.652 223.441 275.199 222.795 275.561 222.168C275.691 221.942 275.77 221.794 275.612 221.574C275.422 221.309 275.115 221.107 274.871 220.9C273.482 219.721 272.622 218.148 272.405 216.278C272.185 214.381 272.694 211.932 274.538 211.104C276.813 210.082 279.319 211.255 281.341 212.349C282.201 209.313 283.966 206.58 286.733 205.187C289.794 203.647 293.306 203.466 296.452 202.144C297.272 201.8 298.107 201.409 298.71 200.707C298.963 200.414 299.259 200.033 299.359 199.646C299.492 199.136 299.163 198.709 298.909 198.312C297.564 196.205 292.463 191.95 289.809 191.14Z" fill="#191847"/>
<path fill-rule="evenodd" clip-rule="evenodd" d="M264.989 461.381C299.411 461.381 327.315 434.726 327.315 401.846C327.315 368.965 299.411 342.31 264.989 342.31C230.567 342.31 202.662 368.965 202.662 401.846C202.662 434.726 230.567 461.381 264.989 461.381Z" fill="white" stroke="black" stroke-width="2"/>
<path fill-rule="evenodd" clip-rule="evenodd" d="M361.887 398.67C364.897 409.223 372.398 429.225 382.769 452.195L392.624 449.318C384.002 396.461 376.827 361.468 372.716 350.817C370.001 343.78 349.456 344.605 351.819 358.764C352.81 364.702 356.732 380.601 361.887 398.67ZM321.38 361.233C305.308 364.565 271.985 376.344 262.47 380.108C256.49 382.473 260.345 390.496 265.447 389.794C266.311 389.675 269.367 389.333 273.928 388.822C288.577 387.182 318.744 383.805 341.625 380.51C353.672 378.775 347.191 356.192 334.683 358.582C330.474 359.386 325.998 360.276 321.38 361.233Z" fill="#FBD0DC"/>
<path fill-rule="evenodd" clip-rule="evenodd" d="M373.346 344.852C371.703 339.486 297.012 320.44 297.012 320.44H290.891V326.148L342.36 352.368C342.292 353.214 342.334 354.108 342.5 355.051C342.128 374.488 350.441 389.009 358.672 403.386C364.054 412.787 369.401 422.127 372.261 432.74L391.171 429.917C390.62 428.507 389.749 422.151 388.558 413.46C385.555 391.547 380.519 354.791 373.453 345.067C373.428 345.033 373.403 344.999 373.377 344.966C373.368 344.928 373.358 344.89 373.346 344.852Z" fill="#1F28CF"/>
<path fill-rule="evenodd" clip-rule="evenodd" d="M295.167 367.939C290.458 366.996 286.121 366.154 282.41 365.503C258.44 361.295 251.45 348.455 255.583 320.44H299.747C306.961 322.514 344.454 338.248 363.907 346.617C376.782 352.155 372.723 372.122 365.432 377.318C365.392 377.637 365.261 377.854 365.028 377.95C337.385 389.416 313.812 388.56 298.675 388.011C292.335 387.781 287.475 387.604 284.415 388.409L279.621 373.275L295.167 367.939Z" fill="#2B44FF"/>
<path fill-rule="evenodd" clip-rule="evenodd" d="M267.539 379.737C267.479 378.567 266.494 377.63 265.331 377.763C263.64 377.957 261.391 378.305 260.251 378.861C258.283 379.822 254.827 382.32 254.827 382.32C255.941 384.605 274.841 423.382 274.841 423.382C274.841 423.382 280.908 422.402 279.649 418.748C278.39 415.094 277.618 412.647 277.618 412.647L276.825 389.607C276.806 389.044 276.326 388.608 275.764 388.644L272.387 388.856C272.387 388.856 269.343 386.39 268.37 384.394C267.828 383.281 267.618 381.285 267.539 379.737Z" fill="white" stroke="black"/>
<path fill-rule="evenodd" clip-rule="evenodd" d="M380.674 447.196C379.597 446.737 378.321 447.212 377.931 448.317C377.364 449.923 376.69 452.098 376.69 453.366C376.69 455.557 377.42 459.761 377.42 459.761C379.96 459.761 423.074 459.761 423.074 459.761C423.074 459.761 424.853 453.873 421.019 453.404C417.185 452.935 414.649 452.556 414.649 452.556L393.609 443.17C393.094 442.94 392.492 443.181 392.277 443.702L390.988 446.832C390.988 446.832 387.438 448.489 385.219 448.489C383.982 448.489 382.099 447.803 380.674 447.196Z" fill="white" stroke="black"/>
<path fill-rule="evenodd" clip-rule="evenodd" d="M359.433 328.245L333.613 309.271L327.906 323.391L353.474 334C360.705 342.501 364.748 346.044 365.604 344.631C366.326 343.439 365.762 342.324 365.242 341.297C364.838 340.496 364.46 339.749 364.738 339.061C365.373 337.49 370.23 337.656 374.833 338.01C379.436 338.364 378.095 336.315 376.985 335.303C372.286 332.488 366.436 330.136 359.433 328.245ZM224.03 361.676C226.402 356.86 234.479 309.926 234.479 309.926L251.394 309.993C251.394 309.993 235.728 360.602 234.479 363.699C232.857 367.721 235.613 373.566 237.481 377.529C237.77 378.142 238.038 378.71 238.265 379.22C235.673 380.38 234.427 378.977 233.114 377.498C231.632 375.827 230.063 374.059 226.369 375.779C224.942 376.443 223.592 377.229 222.272 377.996C217.715 380.647 213.529 383.082 207.834 379.566C206.931 379.008 205.942 376.909 208.332 375.269C214.288 371.182 222.87 364.03 224.03 361.676Z" fill="#FBD0DC"/>
<path fill-rule="evenodd" clip-rule="evenodd" d="M282.549 238.899L289.549 237.698C315.518 260.147 326.184 303.275 358.016 326.122L350.355 335.626C295.132 328.784 281.445 276.178 282.549 238.899Z" fill="#F6DBA4"/>
<path fill-rule="evenodd" clip-rule="evenodd" d="M252.038 326.92C252.038 326.92 294.134 326.92 313.969 326.92C316.799 326.92 316.265 322.831 315.856 320.768C311.135 296.953 292.705 271.282 292.705 237.383L274.841 234.58C260.065 258.36 254.956 287.639 252.038 326.92Z" fill="white"/>
<path fill-rule="evenodd" clip-rule="evenodd" d="M245.074 343.93C242.291 350.62 239.561 356.457 236.99 360.94H223.708C222.279 314.704 239.771 279.127 254.411 257.676C251.16 257.443 248.226 256.082 246.372 252.733C239.842 240.943 242.2 234.452 249.178 232.319C253.015 231.145 256.624 231.946 260.943 232.905C264.478 233.689 268.489 234.579 273.491 234.58C273.493 234.58 273.494 234.58 273.496 234.58C273.981 234.58 274.422 234.613 274.822 234.675L280.75 235.013C280.75 235.013 304.817 316.638 294.025 343.93H245.074Z" fill="#F9E8C5"/>
<path fill-rule="evenodd" clip-rule="evenodd" d="M245.074 343.93C248.726 335.153 252.471 324.908 256.075 314.328C257.416 325.98 259.65 337.682 263.37 343.93H245.074Z" fill="black" fill-opacity="0.1"/>
<path fill-rule="evenodd" clip-rule="evenodd" d="M547.119 161.996C541.869 165.16 536.712 166.688 534.29 166.064C528.219 164.499 527.661 142.29 532.359 133.534C537.056 124.778 561.205 120.962 562.422 138.31C562.845 144.331 560.317 149.704 556.581 154.089L563.279 185.306H543.824L547.119 161.996Z" fill="#D4A181"/>
<path fill-rule="evenodd" clip-rule="evenodd" d="M536.743 127.76C537.188 127.494 538.121 126.933 538.593 126.73C538.705 126.681 539.488 126.123 539.509 126.13C540.101 126.33 541.817 127.068 541.964 127.705C541.987 127.754 542.009 127.799 542.031 127.839C542.274 128.281 542.497 128.734 542.71 129.192C543.177 130.199 543.58 131.25 543.965 132.294C544.715 134.326 545.367 136.406 545.966 138.491C546.576 140.613 547.093 142.76 547.672 144.89C548.506 147.956 549.573 150.947 550.401 154.012C550.93 155.969 551.224 157.949 551.085 159.963C551.084 159.987 551.083 160.011 551.081 160.036C551.08 160.046 551.079 160.056 551.078 160.066C551.054 160.375 551.021 160.686 550.976 160.997C550.936 161.263 550.897 161.531 550.855 161.798C550.099 160.29 549.521 158.628 548.909 157.051C548.849 156.896 548.792 156.741 548.736 156.585C548.538 156.265 548.337 155.947 548.133 155.631C546.848 153.636 545.559 151.648 544.327 149.617C542.111 145.964 539.916 142.234 537.289 138.879C536.513 137.889 535.72 136.913 534.954 135.915C534.518 135.346 534.093 134.769 533.683 134.18C533.389 133.76 532.112 132.294 532.575 131.413C532.811 130.963 535.587 128.45 536.743 127.76Z" fill="#2C2C2C"/>
<path fill-rule="evenodd" clip-rule="evenodd" d="M538.452 126.803C538.019 126.949 538.23 126.047 538.65 125.73C540.594 124.26 548.029 123.726 554.498 125.069C558.832 125.969 563.873 128.208 567.335 131.087C570.456 133.682 572.602 137.843 573.707 141.862C574.867 146.083 575.042 150.483 574.396 154.811C574.254 155.762 573.949 156.668 573.779 157.598C573.588 158.646 573.489 159.655 573.148 160.675C572.939 161.299 572.584 161.911 572.406 162.538C572.202 163.255 572.326 163.917 572.475 164.646C572.716 165.833 573.016 167.018 573.443 168.152C574.083 169.855 574.86 171.45 575.347 173.217C575.995 175.569 578.705 183.22 576.724 185.306H539.015C539.964 182.716 542.815 179.667 543.392 176.895C543.731 175.261 543.893 171.694 543.929 171.565C544.778 165.707 546.438 162.909 547.477 161.894C548.516 160.879 549.9 160.567 549.972 159.686C550.266 156.044 548.818 152.554 547.756 149.155C546.49 145.104 545.563 140.952 544.258 136.915C543.68 135.127 540.703 126.047 538.452 126.803Z" fill="#E0C8FB"/>
<path fill-rule="evenodd" clip-rule="evenodd" d="M553.096 144.079C553.402 137.914 553.096 135.505 551.674 130.993H552.551C553.937 132.784 555.097 138.261 553.793 144.079H553.096ZM570.28 143.788L570.28 143.788L570.28 143.788C570.433 143.414 570.589 143.031 570.751 142.638L571.309 142.906C569.55 149.339 567.411 154.305 560.065 158.468L559.493 158.068C566.441 153.183 567.931 149.537 570.28 143.788ZM559.863 136.094C559.79 136.652 559.719 137.196 559.651 137.726C558.595 145.876 557.925 151.045 552.038 160.418L552.705 160.622C559.158 151.929 560.181 144.834 560.486 136.144L559.863 136.094ZM566.219 162.511L566.789 163.205C563.931 163.803 561.987 165.906 559.758 168.316C557.401 170.867 554.725 173.762 550.309 175.584L549.489 175.087C554.309 172.581 556.551 170.091 558.509 167.916C560.535 165.665 562.257 163.752 566.219 162.511Z" fill="black" fill-opacity="0.2"/>
<path fill-rule="evenodd" clip-rule="evenodd" d="M576.223 253.76L545.763 353.534L531.007 438.385H519.438L535.03 253.76H576.223Z" fill="#BA8B72"/>
<path fill-rule="evenodd" clip-rule="evenodd" d="M587.119 253.76C585.05 308.541 587.485 336.798 587.948 341.775C588.411 346.752 594.752 379.024 609.763 440.056L597.435 435.814C573.712 379.839 565.628 350.747 562.907 343.397C560.186 336.047 552.96 306.168 541.228 253.76H587.119Z" fill="#D4A181"/>
<path fill-rule="evenodd" clip-rule="evenodd" d="M607.043 435.012C608.121 434.552 609.398 435.027 609.787 436.133C610.355 437.741 611.028 439.919 611.028 441.189C611.028 443.383 610.299 447.591 610.299 447.591C607.759 447.591 564.645 447.591 564.645 447.591C564.645 447.591 562.866 441.697 566.7 441.227C570.534 440.757 573.07 440.378 573.07 440.378L594.109 430.98C594.624 430.75 595.227 430.991 595.442 431.513L596.731 434.646C596.731 434.646 600.28 436.306 602.499 436.306C603.736 436.306 605.618 435.62 607.043 435.012Z" fill="white"/>
<path fill-rule="evenodd" clip-rule="evenodd" d="M530.956 435.012C532.034 434.552 533.311 435.027 533.701 436.133C534.268 437.741 534.941 439.919 534.941 441.189C534.941 443.383 534.212 447.591 534.212 447.591C531.672 447.591 488.558 447.591 488.558 447.591C488.558 447.591 486.779 441.697 490.613 441.227C494.447 440.757 496.983 440.378 496.983 440.378L518.022 430.98C518.537 430.75 519.14 430.991 519.355 431.513L520.644 434.646C520.644 434.646 524.194 436.306 526.413 436.306C527.649 436.306 529.531 435.62 530.956 435.012Z" fill="white"/>
<path fill-rule="evenodd" clip-rule="evenodd" d="M580.27 253.76L567.319 304.593H527.761L533.66 253.76H580.27Z" fill="#34BEBA"/>
<path fill-rule="evenodd" clip-rule="evenodd" d="M587.555 253.76C593.947 272.957 589.983 304.593 589.983 304.593H549.616L538.516 253.76H587.555Z" fill="#61EDE9"/>
<path fill-rule="evenodd" clip-rule="evenodd" d="M631.601 279.328C628.579 274.894 608.209 215.235 608.209 215.235L590.64 217.771C590.64 217.771 619.85 279.896 621.518 282.785C623.686 286.539 621.766 292.705 620.465 296.886C620.263 297.533 620.077 298.132 619.922 298.667C622.655 299.454 623.694 297.893 624.791 296.246C626.029 294.387 627.339 292.419 631.242 293.606C632.749 294.064 634.198 294.653 635.613 295.228C640.501 297.215 644.991 299.041 650.15 294.768C650.968 294.091 651.657 291.877 649.058 290.587C642.584 287.374 633.078 281.495 631.601 279.328ZM480.198 276.245L499.826 250.904L509.213 262.888L487.522 280.128C482.903 290.285 479.987 294.803 478.773 293.682C477.75 292.737 477.986 291.51 478.203 290.38C478.372 289.5 478.53 288.678 478.072 288.094C477.028 286.761 472.397 288.26 468.064 289.869C463.73 291.479 464.457 289.141 465.246 287.863C468.994 283.864 473.978 279.992 480.198 276.245Z" fill="#D4A181"/>
<path fill-rule="evenodd" clip-rule="evenodd" d="M547.65 172.987L540.541 172.774C535.029 212.896 482.543 247.093 481.121 262.001C480.599 267.469 484.789 269.607 483.045 271.495L492.994 276.82C494.272 274.826 497.99 277.622 504.479 274.389C510.968 271.155 554.071 218.675 547.65 172.987Z" fill="#FF5D2D"/>
<path fill-rule="evenodd" clip-rule="evenodd" d="M558.122 163.354C560.283 162.895 562.408 164.274 562.867 166.435L563.697 170.336C578.171 178.535 614.763 203.972 631.045 258.608C632.756 264.348 631.594 267.714 630.666 270.403C630.032 272.243 629.506 273.766 630.084 275.516L618.733 280.429C618.547 279.104 616.917 278.304 614.814 277.273C611.756 275.773 607.699 273.784 605.626 268.972C603.661 264.411 600.927 258.753 597.729 252.482C598.741 261.241 598.211 269.501 595.533 276.658C588.851 294.513 534.211 283.641 526.392 267.483C522.219 258.861 525.274 250.701 529.314 239.909C534.442 226.209 541.158 208.268 536.694 179.758L535.115 172.33C534.655 170.17 536.034 168.046 538.195 167.587L558.122 163.354Z" fill="#FF906F"/>
<defs>
<clipPath id="clip0">
<rect x="224" y="57" width="338" height="263" fill="white"/>
</clipPath>
<clipPath id="clip1">
<rect x="233" y="71.1" width="202" height="19" fill="white"/>
</clipPath>
<clipPath id="clip2">
<rect x="233" y="123.7" width="202" height="16" fill="white"/>
</clipPath>
<clipPath id="clip3">
<rect x="233" y="170.7" width="202" height="16" fill="white"/>
</clipPath>
<clipPath id="clip4">
<rect x="233" y="311.7" width="202" height="16" fill="white"/>
</clipPath>
<clipPath id="clip5">
<rect x="233" y="264.7" width="202" height="16" fill="white"/>
</clipPath>
<clipPath id="clip6">
<rect x="233" y="217.7" width="202" height="16" fill="white"/>
</clipPath>
</defs>
</svg>
