<svg width="1440" height="531" viewBox="0 0 1440 531" fill="none" xmlns="http://www.w3.org/2000/svg">
<path fill-rule="evenodd" clip-rule="evenodd" d="M1359.45 101.257C1351.15 103.643 1343.57 103.839 1340.5 102.108C1332.81 97.7664 1340.13 67.3755 1349.72 57.1882C1359.3 47.001 1393.57 50.6228 1388.91 74.646C1387.29 82.9837 1381.89 89.3649 1375.21 93.9617L1372.96 138.835L1346.47 131.739L1359.45 101.257Z" fill="#D4A181"/>
<path fill-rule="evenodd" clip-rule="evenodd" d="M1366.05 71.3129C1364.67 67.2934 1363.17 64.1063 1360.71 61.8311C1349.02 58.8948 1348.21 56.4455 1350.1 49.4212C1352.34 48.5815 1359.58 48.0972 1367.18 49.452C1371.26 49.3846 1375.7 50.7917 1379.54 53.7576C1384.47 56.7014 1388.12 61.1711 1388.49 67.8059C1392.38 82.1935 1383.42 93.6851 1374.84 96.1322C1373.5 93.2776 1372.38 90.5621 1371.43 87.9925C1372.98 87.1218 1374.2 85.6512 1374.69 83.7977C1375.67 80.1467 1373.5 76.3925 1369.84 75.4127C1369.57 75.3406 1369.3 75.2856 1369.04 75.2469C1367.65 79.7676 1362.83 95.0301 1359.62 99.918C1355.82 105.681 1343.17 103.955 1338.9 102.811C1335.22 101.823 1336.28 98.3716 1337.04 95.8979C1337.14 95.5417 1337.25 95.2057 1337.33 94.9003C1337.5 94.2622 1338.33 94.4866 1339.27 94.7401C1340.49 95.0693 1341.89 95.4476 1342.26 94.0506C1342.67 92.5277 1340.88 90.7948 1339.27 89.2442C1338.27 88.2767 1337.34 87.3802 1337.07 86.6498C1336.2 84.3458 1336.43 81.6133 1338.52 82.1725C1339.66 82.4782 1341.05 83.5542 1342.72 84.8488C1345.25 86.8031 1348.41 89.2555 1352.34 90.3073C1358.82 92.0448 1365.96 71.568 1366.05 71.3129Z" fill="#191847"/>
<path fill-rule="evenodd" clip-rule="evenodd" d="M1360.29 230.252L1304.22 371.955L1266.61 491.753H1251.75L1309.25 230.252L1360.29 230.252Z" fill="#997659"/>
<path fill-rule="evenodd" clip-rule="evenodd" d="M1371.58 230.252C1372.18 280.048 1380.89 347.089 1382.28 350.193C1383.67 353.297 1478.34 429.138 1478.34 429.138L1468.11 440.067C1468.11 440.067 1356.41 375.043 1351.24 366.37C1346.07 357.698 1329.24 277.891 1315.73 230.252H1371.58Z" fill="#D4A181"/>
<path fill-rule="evenodd" clip-rule="evenodd" d="M1476.78 426.797C1477.1 425.672 1478.28 425.004 1479.39 425.401C1481.68 426.225 1485.26 427.641 1486.81 428.939C1489.17 430.922 1493.05 435.515 1493.05 435.515C1490.75 438.257 1451.63 484.799 1451.63 484.799C1451.63 484.799 1443.66 481.391 1446.63 476.827C1449.6 472.263 1451.49 469.183 1451.49 469.183L1460.56 437.568C1460.71 437.026 1461.28 436.72 1461.82 436.89L1466.77 438.459C1466.77 438.459 1471.79 436.127 1473.8 433.731C1475.08 432.205 1476.16 428.954 1476.78 426.797Z" fill="#F0F0F0"/>
<path fill-rule="evenodd" clip-rule="evenodd" d="M1269.81 484.821C1270.87 484.344 1272.15 484.822 1272.55 485.92C1273.39 488.201 1274.6 491.85 1274.6 493.869C1274.6 496.955 1273.57 502.874 1273.57 502.874C1269.99 502.874 1209.14 502.874 1209.14 502.874C1209.14 502.874 1206.62 494.584 1212.04 493.923C1217.45 493.262 1221.03 492.729 1221.03 492.729L1251.11 479.338C1251.63 479.109 1252.23 479.35 1252.44 479.87L1254.42 484.668C1254.42 484.668 1259.43 487.001 1262.57 487.001C1264.56 487.001 1267.76 485.737 1269.81 484.821Z" fill="#F0F0F0"/>
<path fill-rule="evenodd" clip-rule="evenodd" d="M1322.59 479.414L1251.98 471.763L1304.31 230.252H1367.55L1322.59 479.414Z" fill="#34BEBA"/>
<path fill-rule="evenodd" clip-rule="evenodd" d="M1463.73 411.507L1417.42 466.243C1417.42 466.243 1344.24 386.448 1332.09 362.11C1319.94 337.773 1310.25 230.252 1310.25 230.252H1381.45C1381.45 230.252 1386.75 324.844 1388.59 329.246C1390.43 333.648 1463.73 411.507 1463.73 411.507Z" fill="#61EDE9"/>
<path fill-rule="evenodd" clip-rule="evenodd" d="M1232.24 224.357L1272.77 204.372L1277.25 225.352L1239.12 233.8C1226.99 243.816 1220.5 247.739 1219.66 245.569C1218.95 243.74 1220 242.331 1220.98 241.034C1221.73 240.023 1222.44 239.08 1222.22 238.058C1221.73 235.723 1214.93 234.762 1208.45 234.125C1201.96 233.488 1204.33 230.975 1206.12 229.843C1213.34 227.092 1222.05 225.263 1232.24 224.357ZM1412.28 303.908C1410.16 296.648 1410.41 229.578 1410.41 229.578L1386.88 225.525C1386.88 225.525 1396.28 299.552 1397.26 304.152C1398.53 310.129 1393.27 317.559 1389.71 322.597C1389.16 323.377 1388.64 324.099 1388.2 324.75C1391.52 326.995 1393.6 325.354 1395.78 323.624C1398.25 321.671 1400.87 319.604 1405.58 322.894C1407.4 324.165 1409.09 325.585 1410.73 326.973C1416.42 331.766 1421.64 336.169 1430.42 332.688C1431.81 332.136 1433.7 329.468 1430.78 326.607C1423.5 319.48 1413.32 307.457 1412.28 303.908Z" fill="#D4A181"/>
<path fill-rule="evenodd" clip-rule="evenodd" d="M1360.96 119.292L1351.53 115.911C1309.94 140.68 1284.56 197.877 1234.73 221.76L1243.06 236.818C1321.49 240.864 1353.38 171.263 1360.96 119.292Z" fill="#F6DBA4"/>
<path fill-rule="evenodd" clip-rule="evenodd" d="M1381.85 248.843C1381.85 248.843 1323.33 238.525 1295.76 233.663C1291.83 232.97 1293.57 227.429 1294.64 224.668C1307.03 192.798 1338.93 161.714 1347.22 114.701L1372.73 115.192C1387.46 151.793 1387.4 193.65 1381.85 248.843Z" fill="white"/>
<path fill-rule="evenodd" clip-rule="evenodd" d="M1387.37 274.14C1389.6 284.099 1391.97 292.863 1394.45 299.712L1412.91 302.967C1426.2 239.195 1410.59 185.568 1395.48 152.229C1400.06 152.704 1404.47 151.535 1407.87 147.345C1419.83 132.595 1418.13 123.015 1408.96 118.346C1403.91 115.778 1398.7 116.004 1392.46 116.275C1387.35 116.497 1381.56 116.748 1374.61 115.523C1374.61 115.523 1374.6 115.522 1374.6 115.522C1373.93 115.403 1373.31 115.34 1372.74 115.328L1364.41 114.345C1364.41 114.345 1311 221.646 1319.33 262.142L1387.37 274.14Z" fill="#F9E8C5"/>
<path fill-rule="evenodd" clip-rule="evenodd" d="M1387.37 274.14C1384.44 261.072 1381.74 245.946 1379.32 230.39C1374.6 246.22 1368.64 261.902 1361.94 269.655L1387.37 274.14Z" fill="black" fill-opacity="0.1"/>
<path fill-rule="evenodd" clip-rule="evenodd" d="M1084.13 197.59C1077.15 201.787 1070.3 203.815 1067.09 202.987C1059.02 200.911 1058.28 171.45 1064.52 159.835C1070.76 148.22 1102.84 143.157 1104.46 166.17C1105.02 174.157 1101.66 181.285 1096.7 187.101L1105.59 228.512H1079.75L1084.13 197.59Z" fill="#FBD0DC"/>
<path fill-rule="evenodd" clip-rule="evenodd" d="M1079.25 146.448C1082.66 145.89 1091.83 145.507 1093.52 145.507C1094.6 145.507 1095.77 145.754 1096.41 144.763C1096.94 143.951 1096.74 142.578 1096.9 141.637C1097.08 140.543 1097.34 139.463 1097.6 138.385C1098.34 135.32 1099.47 132.404 1101.04 129.666C1103.99 124.529 1108.31 120.506 1113.76 118.164C1119.78 115.579 1126.6 114.987 1133.07 115.511C1140 116.072 1146.28 118.358 1152.82 120.508C1159.06 122.557 1165.59 123.364 1172.12 122.363C1178.69 121.355 1183.65 117.798 1189.2 114.422C1194.87 110.965 1201.36 108.704 1208.07 109.224C1214.33 109.709 1220.1 112.292 1225.28 115.741C1230.12 118.969 1234.12 122.852 1236.38 128.317C1238.81 134.195 1238.81 140.648 1234.81 145.844C1229.03 153.375 1218.28 155.322 1209.34 155.129C1204.17 155.017 1199.09 154.074 1194.21 152.36C1187.7 150.073 1182.08 146.198 1175.99 143.053C1173.13 141.578 1170.17 140.366 1167.08 139.493C1164.07 138.645 1161.11 138.256 1158.39 140.069C1155.51 141.987 1152.94 143.871 1149.64 145.071C1146.48 146.223 1143.14 146.867 1139.77 146.841C1133.23 146.791 1126.77 144.753 1120.41 143.389C1115.23 142.276 1109.68 141.167 1104.39 142.237C1102.18 142.683 1098.96 143.605 1098.17 145.894C1111.58 148.322 1116.84 164.885 1113.06 177.043C1111.02 183.606 1098.76 191.278 1093.99 187.828C1090.97 185.642 1092.8 182.772 1093.99 180.878C1096.26 177.251 1097.04 172.591 1092.83 170.065C1089.2 167.887 1085.39 173.06 1085.32 173.054C1084.32 172.976 1075.7 168.109 1069.76 161.007C1063.91 161.354 1063.02 157.497 1064.42 154.343C1065.82 151.189 1074.54 147.219 1079.25 146.448Z" fill="#191847"/>
<path fill-rule="evenodd" clip-rule="evenodd" d="M1205.11 356C1213.94 356 1221.11 363.163 1221.11 372V475C1221.11 483.837 1213.94 491 1205.11 491H1076.8C1067.96 491 1060.8 483.837 1060.8 475V372C1060.8 363.163 1067.96 356 1076.8 356H1205.11ZM1186.57 386.484C1188.78 386.484 1190.57 388.275 1190.57 390.484V456.516C1190.57 458.725 1188.78 460.516 1186.57 460.516H1095.34C1093.13 460.516 1091.34 458.725 1091.34 456.516V390.484C1091.34 388.275 1093.13 386.484 1095.34 386.484H1186.57Z" fill="#C5CFD6"/>
<path fill-rule="evenodd" clip-rule="evenodd" d="M987.458 421.62C983.453 435.63 973.475 462.184 959.678 492.678L946.568 488.858C958.038 418.688 967.583 372.231 973.051 358.092C976.664 348.75 1003.99 349.844 1000.85 368.642C999.532 376.524 994.315 397.632 987.458 421.62ZM1041.34 371.92C1062.72 376.343 1107.05 391.981 1119.71 396.978C1127.67 400.118 1122.54 410.768 1115.75 409.836C1114.6 409.679 1110.54 409.224 1104.47 408.547C1084.98 406.369 1044.85 401.886 1014.41 397.511C998.386 395.207 1007.01 365.228 1023.65 368.4C1029.25 369.468 1035.2 370.649 1041.34 371.92Z" fill="#FBD0DC"/>
<path fill-rule="evenodd" clip-rule="evenodd" d="M972.213 350.173C974.399 343.05 1073.76 317.765 1073.76 317.765H1081.91V325.342L1013.43 360.15C1013.53 361.273 1013.47 362.461 1013.25 363.713C1013.74 389.517 1002.68 408.795 991.735 427.881C984.575 440.362 977.462 452.761 973.657 466.85L948.501 463.103C949.234 461.231 950.393 452.792 951.977 441.255C955.972 412.163 962.672 363.368 972.072 350.458C972.105 350.413 972.138 350.369 972.172 350.324C972.184 350.274 972.198 350.223 972.213 350.173Z" fill="#1F28CF"/>
<path fill-rule="evenodd" clip-rule="evenodd" d="M1076.22 380.823C1082.48 379.57 1088.25 378.453 1093.19 377.588C1125.07 372.002 1134.37 354.956 1128.87 317.765H1070.12C1060.53 320.518 1010.65 341.406 984.77 352.515C967.643 359.869 973.042 386.376 982.741 393.274C982.794 393.697 982.968 393.985 983.279 394.113C1020.05 409.334 1051.41 408.198 1071.55 407.469C1079.98 407.164 1086.45 406.929 1090.52 407.998L1096.9 387.907L1076.22 380.823Z" fill="#2B44FF"/>
<path fill-rule="evenodd" clip-rule="evenodd" d="M1113 395.774C1113.04 394.604 1114.03 393.667 1115.2 393.787C1117.48 394.025 1120.98 394.503 1122.67 395.322C1125.28 396.597 1129.88 399.915 1129.88 399.915C1128.4 402.947 1103.26 454.427 1103.26 454.427C1103.26 454.427 1095.18 453.126 1096.86 448.275C1098.53 443.423 1099.56 440.175 1099.56 440.175L1100.63 409.252C1100.65 408.689 1101.13 408.253 1101.69 408.288L1106.52 408.591C1106.52 408.591 1110.57 405.317 1111.86 402.668C1112.67 401.013 1112.93 397.888 1113 395.774Z" fill="white" stroke="#979797" stroke-width="2"/>
<path fill-rule="evenodd" clip-rule="evenodd" d="M963.125 485.755C964.195 485.28 965.468 485.755 965.87 486.854C966.659 489.011 967.764 492.363 967.764 494.233C967.764 497.142 966.793 502.722 966.793 502.722C963.414 502.722 906.06 502.722 906.06 502.722C906.06 502.722 903.692 494.906 908.793 494.283C913.894 493.66 917.267 493.158 917.267 493.158L945.568 480.558C946.083 480.329 946.685 480.57 946.899 481.09L948.744 485.558C948.744 485.558 953.466 487.758 956.418 487.758C958.263 487.758 961.19 486.614 963.125 485.755Z" fill="white" stroke="#979797" stroke-width="2"/>
<path fill-rule="evenodd" clip-rule="evenodd" d="M976.127 271.207L1015.14 288.319L1002.69 304.258L973.464 281.884C958.868 279.207 952.099 276.907 953.156 274.984C954.048 273.363 955.708 273.272 957.236 273.187C958.427 273.122 959.538 273.061 960.145 272.284C961.531 270.51 958.11 265.032 954.641 259.971C951.171 254.911 954.423 255.094 956.326 255.699C962.691 259.236 969.292 264.406 976.127 271.207ZM1150.82 297.404L1172.89 293.032C1187.85 332.421 1196.77 354.006 1199.65 357.787C1201.76 360.559 1214.78 367.7 1223.59 371.514C1227.13 373.045 1226.37 376.029 1225.33 376.984C1218.79 383.007 1212.7 380.896 1206.08 378.598C1204.17 377.933 1202.2 377.252 1200.17 376.748C1194.92 375.444 1193.32 378.144 1191.8 380.696C1190.46 382.955 1189.19 385.098 1185.52 384.243C1185.68 383.522 1185.89 382.715 1186.11 381.843C1187.54 376.208 1189.66 367.897 1186.52 363.069C1184.91 360.591 1173.01 338.703 1150.82 297.404Z" fill="#FBD0DC"/>
<path fill-rule="evenodd" clip-rule="evenodd" d="M1090.85 210.588L1081.54 208.993C1061.26 228.64 1052.98 275.84 1039.46 282.088C1026.69 287.995 1008.57 282.279 987.04 274.56L980.446 289.273C1000.01 310.41 1041.69 328.267 1058.58 318.073C1085.59 301.774 1091.83 243.56 1090.85 210.588Z" fill="#FF5D2D"/>
<path fill-rule="evenodd" clip-rule="evenodd" d="M1131.44 327.443C1131.44 327.443 1075.44 327.443 1049.05 327.443C1045.29 327.443 1045.99 322.014 1046.54 319.275C1052.82 287.66 1077.34 253.58 1077.34 208.576L1101.1 204.855C1120.76 236.425 1127.56 275.294 1131.44 327.443Z" fill="#F5F7F9"/>
<path fill-rule="evenodd" clip-rule="evenodd" d="M1102.36 204.855H1102.64C1155.94 237.657 1188.15 288.506 1199.28 357.4L1182.01 360.778C1170.57 347.469 1156.45 325.688 1139.66 295.434C1144.81 313.658 1148.57 332.35 1149.74 350.025H1075.58C1061.23 313.792 1093.23 204.855 1093.23 204.855H1098.35H1102.36Z" fill="#FF906F"/>
<path fill-rule="evenodd" clip-rule="evenodd" d="M218.127 111.044C225.358 115.403 232.463 117.51 235.798 116.65C244.162 114.494 244.93 83.8917 238.46 71.8275C231.989 59.7632 198.723 54.5048 197.046 78.408C196.464 86.704 199.947 94.1077 205.092 100.149L195.866 143.162H222.666L218.127 111.044Z" fill="#B28B67"/>
<path fill-rule="evenodd" clip-rule="evenodd" d="M250.333 55.1028C249.778 53.1516 248.285 51.4809 246.273 50.9853C245.785 50.865 245.282 50.8165 244.78 50.8367C244.6 50.8439 244.549 50.8959 244.465 50.7699C244.402 50.6765 244.401 50.4484 244.375 50.3387C244.295 49.9974 244.195 49.6605 244.072 49.3322C243.651 48.2126 242.944 47.2218 242.091 46.3871C240.496 44.8256 238.341 43.7479 236.102 43.553C234.876 43.4463 233.66 43.6455 232.501 44.0442C231.902 44.2506 231.32 44.5076 230.754 44.7918C230.583 44.8773 230.03 45.2962 229.858 45.2691C229.669 45.2392 229.29 44.7693 229.136 44.6513C227.236 43.1933 224.89 42.6201 222.523 42.6376C219.852 42.6573 217.28 42.7908 215.053 44.4195C214.581 44.7644 214.132 45.1419 213.704 45.5394C213.479 45.7487 213.261 45.9658 213.053 46.1919C212.927 46.3284 212.805 46.4679 212.688 46.6111C212.488 46.8543 212.52 46.9342 212.24 46.7645C211.168 46.113 209.926 45.8083 208.675 45.9621C207.932 46.0535 207.209 46.2767 206.522 46.5704C206.288 46.6703 205.747 47.0692 205.498 47.073C205.251 47.0769 204.718 46.7072 204.463 46.6132C203.088 46.1055 201.606 45.9804 200.161 46.215C198.671 46.457 197.206 47.0519 195.943 47.874C195.336 48.2694 194.806 48.7075 194.38 49.2955C194.196 49.5494 194.03 49.8179 193.822 50.0533C193.7 50.1912 193.458 50.3326 193.393 50.507C193.432 50.4026 191.763 49.7588 191.605 49.7177C190.766 49.4984 189.911 49.5429 189.09 49.8134C187.544 50.3221 186.215 51.4629 185.123 52.6325C184.562 53.2332 184.071 53.8973 183.654 54.6048C183.454 54.9436 183.272 55.2922 183.105 55.6482C183.024 55.8206 182.97 56.0364 182.863 56.1917C182.726 56.3919 182.634 56.3957 182.385 56.483C181.12 56.9262 179.967 57.6764 179.089 58.69C178.201 59.7156 177.625 60.9785 177.383 62.3084C177.369 62.3867 177.36 62.7114 177.314 62.7538C177.252 62.8122 176.997 62.7864 176.901 62.7977C176.568 62.8368 176.237 62.8949 175.911 62.9722C175.309 63.1147 174.723 63.3243 174.169 63.5985C172.009 64.6673 170.465 66.6711 169.709 68.9258C168.916 71.292 168.93 74.0028 169.878 76.3249C170.031 76.6999 170.213 77.064 170.427 77.4083C170.559 77.6197 170.601 77.6203 170.516 77.8421C170.421 78.0888 170.247 78.3286 170.134 78.5697C169.766 79.3566 169.508 80.1911 169.345 81.0435C169.079 82.4416 168.946 83.9109 169.21 85.3197C169.332 85.9739 169.545 86.6134 169.87 87.196C170.036 87.4931 170.229 87.7748 170.448 88.0354C170.562 88.1708 170.683 88.3 170.809 88.4238C170.881 88.4945 170.976 88.5565 171.037 88.6355C171.187 88.8281 171.219 88.6697 171.141 88.9526C171.033 89.348 170.788 89.7382 170.638 90.123C170.484 90.5195 170.344 90.9215 170.216 91.3274C169.957 92.1494 169.739 92.9863 169.602 93.8375C169.339 95.4719 169.385 97.2133 170.158 98.7133C170.488 99.3549 170.962 99.9177 171.537 100.356C171.819 100.57 172.124 100.754 172.443 100.906C172.608 100.984 172.818 101.017 172.892 101.176C172.973 101.347 172.853 101.687 172.826 101.878C172.588 103.54 172.469 105.285 172.963 106.914C173.418 108.415 174.42 109.74 175.721 110.617C178.244 112.318 181.645 112.222 184.297 110.86C184.988 110.505 185.634 110.064 186.211 109.544C187.68 111.522 190.702 111.459 192.848 110.896C195.523 110.194 197.668 108.334 198.905 105.89C200.595 107.948 204.143 107.281 205.315 105.047C205.602 104.501 205.773 103.898 205.856 103.289C205.9 102.968 205.872 102.645 205.905 102.327C205.948 101.922 206.218 101.528 206.374 101.136C206.677 100.373 206.865 99.5852 206.873 98.7624C206.877 98.3327 206.823 97.914 206.782 97.4879C206.745 97.1042 206.852 96.7468 206.912 96.3681C206.226 96.4811 205.391 96.2961 204.744 96.0972C204.11 95.902 203.516 95.3879 203.069 94.9183C202.03 93.828 201.395 92.3988 200.961 90.9763C200.007 87.8541 200.398 84.1082 203.538 82.3947C205 81.5965 209.382 81.5991 211.124 81.9936C212.955 82.4085 215.032 86.451 215.134 86.8309C215.197 87.0661 215.165 87.3572 215.381 87.5138C215.856 87.8584 216.639 87.2605 216.989 86.9654C217.593 86.4561 218.024 85.7785 218.397 85.0916C219.21 83.5952 219.866 81.9905 220.329 80.3523C220.686 79.0894 220.914 77.787 221.381 76.5562C221.845 75.3315 222.578 74.2369 223.716 73.5431C224.954 72.7884 226.373 72.3909 227.732 71.9166C229.079 71.4466 230.403 70.8721 231.448 69.8747C231.677 69.6554 231.9 69.4224 232.085 69.1642C232.231 68.9603 232.375 68.5701 232.598 68.4408C232.943 68.2398 233.448 68.7626 233.747 68.9525C235.221 69.8892 236.451 71.1956 237.443 72.6227C238.43 74.0421 239.24 75.4078 239.897 76.9927C240.385 78.1682 240.69 79.6736 241.548 80.6369C241.931 81.0671 244.78 81.3273 245.702 80.9518C246.625 80.5762 247.659 79.6011 247.968 78.99C248.285 78.3646 248.361 77.6775 248.225 76.9927C248.146 76.5899 247.983 76.2136 247.894 75.8179C247.819 75.4856 247.751 75.1714 247.589 74.8669C247.283 74.2899 246.759 73.8752 246.128 73.7018C246.785 73.0957 247.329 72.3706 247.706 71.5601C248.098 70.718 248.43 69.6939 248.524 68.7697C248.6 68.019 248.482 67.2412 248.071 66.5961C247.64 65.9194 246.877 65.4779 246.216 65.0557C247.225 64.266 248.089 63.3056 248.799 62.2423C250.18 60.1745 251.034 57.568 250.333 55.1028Z" fill="#191847"/>
<path fill-rule="evenodd" clip-rule="evenodd" d="M186.934 235.869L240.625 377.975L278.258 482.714H299.717L247.986 235.869L186.934 235.869Z" fill="#AEFEFE"/>
<path fill-rule="evenodd" clip-rule="evenodd" d="M173.663 235.869C173.08 284.629 173.502 350.275 172.142 353.315C170.782 356.354 87.5498 422.575 87.5498 422.575L98.6104 441.387C98.6104 441.387 197.426 377.647 202.478 369.155C207.53 360.663 232.911 282.516 246.117 235.869H173.663Z" fill="#D8FAFA"/>
<path fill-rule="evenodd" clip-rule="evenodd" d="M68.0909 435.234L86.7725 421.013L101.846 438.981C103.585 459.3 115.297 484.556 115.297 484.556L111.875 487.428L84.5999 454.914L76.9796 442.355L75.2687 443.791L68.0909 435.234Z" fill="#191847"/>
<path fill-rule="evenodd" clip-rule="evenodd" d="M276.267 502.819L277.383 479.363L300.833 479.363C317.512 491.091 344.383 498.351 344.383 498.351V502.819H301.95L287.433 500.585V502.819H276.267Z" fill="#191847"/>
<path fill-rule="evenodd" clip-rule="evenodd" d="M327.055 185.523L282.966 191.538L290.876 211.296L326.651 197.11C342.071 198.631 349.527 198.265 349.02 196.011C348.592 194.11 346.953 193.536 345.443 193.007C344.267 192.596 343.17 192.211 342.784 191.249C341.904 189.05 346.916 184.493 351.857 180.374C356.797 176.254 353.481 175.496 351.396 175.557C343.988 177.294 335.875 180.616 327.055 185.523ZM112.56 293.848C115.833 287.207 144.466 201.746 144.466 201.746L168.918 201.838C168.918 201.838 128.699 292.367 126.976 296.637C124.739 302.184 128.54 310.243 131.117 315.708C131.516 316.554 131.885 317.337 132.199 318.039C128.622 319.64 126.904 317.705 125.093 315.666C123.048 313.362 120.883 310.924 115.787 313.295C113.819 314.211 111.956 315.294 110.136 316.353C103.849 320.008 98.0736 323.366 90.217 318.517C88.9714 317.748 87.6065 314.854 90.9044 312.592C99.1205 306.957 110.96 297.094 112.56 293.848Z" fill="#997659"/>
<path fill-rule="evenodd" clip-rule="evenodd" d="M211.443 124.174L230.588 125.45C235.303 168.119 260.986 195.07 318.488 185.946L326.128 240.894C272.383 247.841 225.249 226.319 215.589 168.046C213.088 152.961 211.114 137.262 211.443 124.174Z" fill="#C59DF2"/>
<path fill-rule="evenodd" clip-rule="evenodd" d="M115.915 282.781C129.208 212.038 157.264 157.307 200.083 118.59H201.92H201.983L201.998 118.607L231.005 125.252C231.005 160.106 238.757 186.148 246.21 211.185C249.429 221.997 252.591 232.622 255.05 243.688H176.709C175.605 256.366 174.927 269.397 174.574 282.781H115.915Z" fill="#E0C8FB"/>
<path fill-rule="evenodd" clip-rule="evenodd" d="M176.708 243.688C178.955 217.875 182.967 193.525 189.599 170.637C188.146 195.114 187.742 225.479 192.63 243.688H176.708Z" fill="black" fill-opacity="0.1"/>
<line x1="8.74228e-08" y1="502" x2="1440" y2="502" stroke="black" stroke-width="2"/>
</svg>
